<?xml version="1.0" encoding="utf-8"?>
<!-- Generator: Adobe Illustrator 16.0.0  SVG Export Plug-In . SVG Version: 6.00 Build 0)  -->
<!DOCTYPE svg PUBLIC "-//W3C//DTD SVG 1.1//EN" "http://www.w3.org/Graphics/SVG/1.1/DTD/svg11.dtd" [
	<!ENTITY ns_extend "http://ns.adobe.com/Extensibility/1.0/">
	<!ENTITY ns_ai "http://ns.adobe.com/AdobeIllustrator/10.0/">
	<!ENTITY ns_graphs "http://ns.adobe.com/Graphs/1.0/">
	<!ENTITY ns_vars "http://ns.adobe.com/Variables/1.0/">
	<!ENTITY ns_imrep "http://ns.adobe.com/ImageReplacement/1.0/">
	<!ENTITY ns_sfw "http://ns.adobe.com/SaveForWeb/1.0/">
	<!ENTITY ns_custom "http://ns.adobe.com/GenericCustomNamespace/1.0/">
	<!ENTITY ns_adobe_xpath "http://ns.adobe.com/XPath/1.0/">
]>
<svg version="1.1" xmlns:x="&ns_extend;" xmlns:i="&ns_ai;" xmlns:graph="&ns_graphs;"
	 xmlns="http://www.w3.org/2000/svg" xmlns:xlink="http://www.w3.org/1999/xlink" x="0px" y="0px" width="490px" height="490px"
	 viewBox="0 0 490 490" enable-background="new 0 0 490 490" xml:space="preserve">
	<g id="Capa_2">
		<rect id="fondo" fill="#5DA6C3" width="490" height="490"/>
		<g>
			<polygon id="lineaAzulInf" fill="#5DA6C3" points="255.98 240.566 256.293 366.529 264.491 362.728 268.425 358.151 268.425 354.571 269.5 233.416 264.581 236.343"/>
			<path id="lineaAmarillaInf" fill="#EFCA30" d="M224.066 235.073 l 9.786 4.836 l 7.316 1.463 h 7.499 l 7.312 -0.806 l 0.312 125.963 l -2.846 1.081 l -7.522 0.896 c 0 0-5.213 0.34 -11.158 -0.766 c -3.232 -0.602 -9.44 -5.707 -9.44 -5.707 l -4.448 -5.615 l 0.72 -123.003"/>
			<path id="bordeExteriorInf" fill="none" stroke="#330000" stroke-width="3" stroke-miterlimit="10" d="M246.557 238.788 c -17.048 0.388 -26.057 -8 -26.057 -8 v 123.053 c 0 8.1   10.969  14.666  24.5 14.666 s 24.5 -6.566 24.5 -14.666 V 229.788 C 269.5 229.788 261.224 238.454 246.557 238.788z"/>
			<path id="circuloSuperiorInf" fill="#6BE898" stroke="#330000" stroke-width="3" stroke-miterlimit="10" d="M245 212.787 c-13.531 0 -24.5 6.566 -24.5 14.667 s 10.969 14.667 24.5 14.667 s 24.5-6.566 24.5-14.667 S 258.531 212.787 245 212.787z M245 235.453 c -8.469 0 -15.334 -3.582 -15.334 -8 s 6.865 -8 15.334 -8 s 15.334 3.582 15.334 8 S 253.469 235.453 245 235.453z"/>
			<rect id="separadorInf" x="254.247" y="240.641" fill="#330000" width="3.043" height="125.888"/>
		</g>
		<circle id="bola" fill="#FFFFFF" stroke="#330000" stroke-width="3" stroke-miterlimit="10" cx="245" cy="202.564" r="13.627"/>
		<g>
			<polygon id="lineaAzulSup" fill="#5DA6C3" points="255.98 166.451 256.293 187.354 264.491 183.553 268.425 178.977 268.425 175.397 269.5 159.301 264.581 162.228"/>
			<path id="lineaAmarillaSup" fill="#EFCA30" d="M224.066 160.958 l 9.786 4.836 l 7.316 1.463 h 7.499 l 7.312 -0.806 l 0.312 20.903 l -2.846 1.082 l -7.522 0.896 c 0 0 -5.213 0.34 -11.158 -0.766 c -3.232 -0.601 -9.44 -5.707 -9.44 -5.707 l -4.448 -5.616 l 0.72 -17.943"/>
			<path id="bordeExteriorSup" fill="none" stroke="#330000" stroke-width="3" stroke-miterlimit="10" d="M246.557 164.672 c -17.048 0.388 -26.057 -8 -26.057 -8 v 17.993 c 0 8.1 10.969 14.667 24.5 14.667 s 24.5 -6.566 24.5 -14.667 v -18.993 C 269.5 155.673 261.224 164.339 246.557 164.672z"/>
			<path id="circuloSuperiorSup" fill="#F05B30" stroke="#330000" stroke-width="3" stroke-miterlimit="10" d="M245 138.671 c -13.531 0 -24.5 6.566 -24.5 14.667 s 10.969 14.667 24.5 14.667 s 24.5 -6.566 24.5 -14.667 S 258.531 138.671 245 138.671z M245 161.338 c -8.469 0 -15.334 -3.582-15.334-8s6.865-8 15.334 -8 s 15.334 3.582 15.334 8 S 253.469 161.338 245 161.338z"/>
			<rect id="separadorSup" x="254.247" y="166.526" fill="#330000" width="3.043" height="20.829"/>
		</g>
	</g>
</svg>
