<?xml version="1.0" encoding="utf-8"?>
<!-- Generator: Adobe Illustrator 16.0.0, SVG Export Plug-In . SVG Version: 6.00 Build 0)  -->
<!DOCTYPE svg PUBLIC "-//W3C//DTD SVG 1.1//EN" "http://www.w3.org/Graphics/SVG/1.1/DTD/svg11.dtd">
<svg version="1.1" id="Capa_1" xmlns="http://www.w3.org/2000/svg" xmlns:xlink="http://www.w3.org/1999/xlink" x="0px" y="0px"
	 width="320px" height="372px" viewBox="0 0 320 372" enable-background="new 0 0 320 372" xml:space="preserve">
<g id="_x31_0">
	<g id="grupoPiramide">
		<g>
			<g>
				<g>
					<polygon fill="#FFFFFF" points="154.669,135.032 97.568,238.683 107.829,238.983 157.621,140.459"/>
					<polygon id="fondoVerdePiramide" fill="#93C93D" points="211.903,238.489 155.84,137.243 101.828,238.489"/>
					<path id="bordeNegroPiramide" d="M214.472,240.01H95.069l59.701-108.019L214.472,240.01z M100.287,236.932h108.966l-54.483-98.578L100.287,236.932z"/>
				</g>
				<rect id="primeraLineaHorizontal" x="112.506" y="209.673" width="84.327" height="1.539"/>
				<rect id="lineaCentalInferior" x="154.096" y="210.442" width="1.539" height="28.028"/>
				<rect id="lineaIzqInferior" x="119.701" y="210.371" width="1.539" height="28.029"/>
				<rect id="lineaDerInferior" x="188.37" y="209.653" width="1.54" height="28.03"/>
				<rect id="segundaLineaHorizontal" x="128.816" y="181.432" width="52.444" height="1.54"/>
				<rect id="lineaIzqMedio" x="136.729" y="182.132" width="1.539" height="28.029"/>
				<rect id="lineaDerMedio" x="171.246" y="182.063" width="1.538" height="28.028"/>
				<rect id="terceraLineaHorizontal" x="144.229" y="153.474" width="21.042" height="1.539"/>
				<rect id="lineaCentalSuperior" x="154" y="154.174" width="1.539" height="28.028"/>
			</g>
		</g>
	</g>
	<g id="grupoOjo">
		<g id="grupoOjoExt">
			<path id="rellonoOjo" fill="#FFFFFF" d="M182.804,196.59c0,0-12.597,12.8-28.135,12.8c-15.539,0-28.136-12.8-28.136-12.8s12.597-12.8,28.136-12.8 C170.207,183.79,182.804,196.59,182.804,196.59z"/>
			<path id="bordeOjo" d="M154.669,210.93c-15.999,0-28.7-12.719-29.232-13.261l-1.062-1.079l1.062-1.079c0.532-0.542,13.233-13.26,29.232-13.26 s28.7,12.718,29.232,13.26l1.062,1.079l-1.062,1.079C183.369,198.211,170.668,210.93,154.669,210.93z M128.793,196.59 c3.393,3.009,13.803,11.262,25.876,11.262s22.482-8.253,25.876-11.262c-3.394-3.009-13.803-11.261-25.876-11.261 S132.186,193.581,128.793,196.59z"/>
		</g>
		<g id="grupoOjoInt">
			<circle id="iris" fill="#C83759" cx="154.669" cy="196.59" r="8.163"/>
			<circle id="pupila" cx="154.669" cy="196.59" r="4.718"/>
			<circle id="brilloGrand" fill="#FFFFFF" cx="163.312" cy="196.093" r="3.343"/>
			<circle id="brilloPeq" fill="#FFFFFF" cx="159.673" cy="193.999" r="1.249"/>
		</g>
	</g>
	<g id="grupoPestanas">
		<g id="grupoPestanasDer">
			<g>
				<path fill="#FFCF48" d="M156.223,157.093c0,8.5-1.359,15.391-1.359,15.391s-1.359-6.891-1.359-15.391 c0-8.5,1.359-15.39,1.359-15.39S156.223,148.593,156.223,157.093z"/>
				<path fill="#FFFFFF" d="M154.863,173.809l-0.252-1.276c-0.014-0.069-1.363-7.012-1.363-15.44c0-8.427,1.35-15.371,1.363-15.44 l0.252-1.275l0.252,1.275c0.014,0.069,1.364,7.013,1.364,15.44c0,8.428-1.351,15.371-1.364,15.44L154.863,173.809z M154.863,143.214c-0.392,2.465-1.103,7.78-1.103,13.879c0,6.098,0.711,11.413,1.103,13.879 c0.393-2.466,1.104-7.781,1.104-13.879C155.967,150.993,155.256,145.679,154.863,143.214z"/>
			</g>
			<g>
				<path fill="#FFCF48" d="M165.717,160.239c-2.519,8.118-5.859,14.296-5.859,14.296s0.744-6.984,3.264-15.102 s5.86-14.295,5.86-14.295S168.236,152.122,165.717,160.239z"/>
				<path fill="#FFFFFF" d="M159.464,175.801l0.138-1.293c0.008-0.07,0.776-7.102,3.275-15.151 c2.498-8.048,5.846-14.28,5.879-14.341l0.618-1.144l-0.138,1.293c-0.008,0.069-0.776,7.102-3.274,15.15 c-2.497,8.048-5.846,14.28-5.879,14.342L159.464,175.801z M168.532,146.582c-1.104,2.239-3.358,7.104-5.165,12.928 c-1.809,5.824-2.705,11.111-3.062,13.582c1.105-2.238,3.36-7.104,5.168-12.928C167.28,154.339,168.176,149.053,168.532,146.582z "/>
			</g>
			<g>
				<path fill="#FFCF48" d="M174.567,165.129c-5.313,6.634-10.683,11.163-10.683,11.163s3.248-6.228,8.562-12.862 c5.312-6.634,10.682-11.163,10.682-11.163S179.881,158.495,174.567,165.129z"/>
				<path fill="#FFFFFF" d="M163.057,177.327l0.602-1.153c0.032-0.062,3.319-6.326,8.588-12.904 c5.268-6.577,10.662-11.153,10.717-11.198l0.994-0.838l-0.602,1.153c-0.032,0.062-3.319,6.326-8.588,12.903 c-5.269,6.578-10.663,11.153-10.717,11.199L163.057,177.327z M182.183,153.447c-1.847,1.68-5.724,5.383-9.536,10.143 c-3.813,4.761-6.581,9.353-7.816,11.521c1.848-1.679,5.725-5.383,9.537-10.143C178.18,160.209,180.947,155.617,182.183,153.447z "/>
			</g>
			<g>
				<path fill="#FFCF48" d="M181.271,172.3c-7.051,4.746-13.527,7.467-13.527,7.467s4.958-4.976,12.009-9.722 s13.526-7.467,13.526-7.467S188.322,167.553,181.271,172.3z"/>
				<path fill="#FFFFFF" d="M166.645,180.508l0.919-0.922c0.05-0.05,5.056-5.047,12.046-9.753 c6.991-4.706,13.506-7.464,13.571-7.491l1.198-0.504l-0.918,0.921c-0.05,0.05-5.057,5.047-12.047,9.754 c-6.99,4.706-13.505,7.464-13.57,7.491L166.645,180.508z M192.025,163.422c-2.264,1.052-7.07,3.43-12.129,6.835 c-5.062,3.407-9.071,6.964-10.897,8.665c2.264-1.052,7.07-3.43,12.129-6.835C186.188,168.681,190.199,165.124,192.025,163.422z" />
			</g>
			<g>
				<path fill="#FFCF48" d="M184.283,181.092c-8.282,1.909-15.302,2.133-15.302,2.133s6.409-2.873,14.69-4.782 c8.283-1.91,15.303-2.133,15.303-2.133S192.566,179.182,184.283,181.092z"/>
				<path fill="#FFFFFF" d="M167.689,183.523l1.188-0.532c0.063-0.029,6.526-2.904,14.737-4.797 c8.213-1.893,15.281-2.138,15.353-2.14l1.301-0.042l-1.188,0.532c-0.063,0.029-6.526,2.904-14.738,4.798 c-8.212,1.893-15.281,2.137-15.352,2.14L167.689,183.523z M197.502,176.649c-2.491,0.172-7.829,0.674-13.771,2.044 c-5.945,1.37-10.963,3.256-13.276,4.192c2.49-0.172,7.829-0.673,13.772-2.043C190.168,179.472,195.188,177.585,197.502,176.649z "/>
			</g>
		</g>
		<g id="grupoPestanasIzq">
			<g>
				<path fill="#FFCF48" d="M144.178,160.239c2.52,8.118,5.859,14.296,5.859,14.296s-0.744-6.984-3.264-15.102 s-5.859-14.295-5.859-14.295S141.658,152.122,144.178,160.239z"/>
				<path fill="#FFFFFF" d="M150.432,175.801l-0.619-1.144c-0.033-0.062-3.381-6.293-5.879-14.342s-3.268-15.081-3.274-15.15 l-0.138-1.293l0.618,1.144c0.034,0.062,3.382,6.293,5.879,14.341c2.499,8.049,3.267,15.081,3.274,15.151L150.432,175.801z M141.362,146.582c0.356,2.471,1.253,7.757,3.061,13.581c1.809,5.827,4.062,10.691,5.167,12.928 c-0.357-2.471-1.254-7.758-3.061-13.582C144.721,153.686,142.468,148.82,141.362,146.582z"/>
			</g>
			<g>
				<path fill="#FFCF48" d="M135.328,165.129c5.313,6.634,10.682,11.163,10.682,11.163s-3.247-6.228-8.561-12.862 c-5.312-6.634-10.682-11.163-10.682-11.163S130.015,158.495,135.328,165.129z"/>
				<path fill="#FFFFFF" d="M146.839,177.327l-0.993-0.838c-0.055-0.046-5.449-4.621-10.717-11.199 c-5.269-6.577-8.556-12.841-8.588-12.903l-0.602-1.153l0.994,0.838c0.054,0.045,5.449,4.621,10.717,11.198 c5.268,6.578,8.555,12.841,8.587,12.904L146.839,177.327z M127.713,153.447c1.236,2.169,4.004,6.762,7.816,11.521 c3.812,4.76,7.688,8.463,9.535,10.143c-1.235-2.169-4.003-6.762-7.814-11.521C133.438,158.831,129.561,155.127,127.713,153.447z "/>
			</g>
			<g>
				<path fill="#FFCF48" d="M128.625,172.3c7.051,4.746,13.525,7.467,13.525,7.467s-4.957-4.976-12.008-9.722 c-7.05-4.747-13.525-7.467-13.525-7.467S121.574,167.553,128.625,172.3z"/>
				<path fill="#FFFFFF" d="M143.25,180.508l-1.199-0.504c-0.064-0.027-6.578-2.785-13.568-7.491 c-6.99-4.707-11.997-9.704-12.047-9.754l-0.918-0.921l1.199,0.504c0.064,0.027,6.58,2.785,13.569,7.491 c6.991,4.706,11.997,9.704,12.046,9.753L143.25,180.508z M117.872,163.422c1.826,1.702,5.838,5.26,10.896,8.666 c5.059,3.405,9.865,5.784,12.129,6.835c-1.826-1.702-5.838-5.259-10.896-8.665C124.939,166.851,120.135,164.473,117.872,163.422 z"/>
			</g>
			<g>
				<path fill="#FFCF48" d="M125.613,181.092c8.281,1.909,15.301,2.133,15.301,2.133s-6.408-2.873-14.689-4.782 c-8.283-1.91-15.303-2.133-15.303-2.133S117.331,179.182,125.613,181.092z"/>
				<path fill="#FFFFFF" d="M142.205,183.523l-1.299-0.042c-0.07-0.002-7.14-0.247-15.352-2.14 c-8.211-1.894-14.674-4.769-14.738-4.798l-1.186-0.532l1.299,0.042c0.07,0.002,7.141,0.247,15.352,2.14 c8.212,1.893,14.674,4.769,14.738,4.797L142.205,183.523z M112.396,176.649c2.314,0.936,7.333,2.822,13.274,4.192c5.942,1.37,11.281,1.871,13.771,2.043c-2.314-0.936-7.334-2.823-13.275-4.192C120.225,177.323,114.886,176.822,112.396,176.649 z"/>
			</g>
		</g>
	</g>
	<g id="grupoMano">
		<path id="fondoManoBlanco" fill="#FFFFFF" d="M191.149,210.652c0,0-3.72-1.244-4.018-15.603c0,0-0.042-8.87,7.14-9.05v-23.265 c0,0,1.033-5.215,3.93-4.593l2.887,0.417c0,0,2.299-3.455,4.299-3.23l2.993,1.578l-1.025,1.725l-10.521,35.194L191.149,210.652z" />
		<path id="fondoManoVerde" fill="#93C93D" d="M197.322,185.857v-23.424c0,0-0.489-4.702,3.766-4.445c2.918,0.176,1.737,5.128,1.737,5.128 s-0.382-6.781,5.555-6.781c2.478,0,0.23-0.069,0.984,1.653c0.753,1.722,0.753,24.53,0.753,24.53s-0.219-3.009,2.258-2.471 c2.477,0.539,4.307,2.145,4.521,2.471c0.216,0.327,0.753,3.339,0.753,3.339s2.162-1.933,4.422-1.612 c2.259,0.321,1.115,0.213,1.223,1.612c0.108,1.398,0.43,5.272,0.538,6.994c0.107,1.722-1.101,14.171-1.423,14.924 c-0.323,0.753-4.52,10.761-17.863,11.621c-12.805-0.753-14.79-10.063-14.79-10.063v-15.817 C189.756,193.516,189.14,186.529,197.322,185.857z"/>
		<path id="bordeManoNegra" d="M185.894,201.678c-0.024,10.753,8.703,19.521,19.456,19.546c0.016,0,0.031,0,0.046,0c10.733,0,19.477-8.719,19.501-19.457 l0.016-6.665l0,0l0.004-1.442l0.015-6.292c0.006-2.558-2.071-4.644-4.629-4.649l-0.579-0.001c-0.004,0-0.008,0-0.012,0 c-0.691,0-1.362,0.15-1.971,0.437c-0.018-1.207-0.494-2.341-1.351-3.2c-0.873-0.877-2.038-1.364-3.276-1.367l-0.579-0.001 c-0.004,0-0.009,0-0.011,0c-0.691,0-1.346,0.155-1.935,0.43l0.015-20.063c0.007-2.557-2.069-4.643-4.628-4.649l-0.579-0.001 c-0.004,0-0.007,0-0.01,0c-1.238,0-2.398,0.487-3.272,1.37c-0.444,0.451-0.786,0.979-1.015,1.552 c-0.697-0.402-1.485-0.619-2.308-0.621l-0.579-0.001c-0.003,0-0.007,0-0.012,0c-2.542,0-4.612,2.083-4.618,4.65l-0.039,23.914 c-7.521,0.641-7.629,6.823-7.629,6.888L185.894,201.678z M200.762,161.268l-0.004,1.816l-0.007,2.879c0,0,0,0,0,0.001 l-0.028,19.161l-4.497-0.01l0.039-23.857c0.003-1.09,0.871-1.975,1.938-1.975c0.003,0,0.004,0,0.005,0l0.579,0.001 c0.521,0.001,1.018,0.21,1.393,0.588C200.556,160.249,200.764,160.745,200.762,161.268z M215.062,183.23l-0.007,8.639 c0,0.049,0.002,0.097,0.007,0.145l-0.007,3.064c-0.001,0.523-0.206,1.016-0.577,1.385s-0.858,0.576-1.387,0.57l-0.578-0.001 c-1.081-0.002-1.958-0.884-1.955-1.963l0.009-3.887c0-0.021-0.002-0.041-0.003-0.061l0.018-7.082c0-0.002,0.002-0.004,0.002-0.007 v-0.24l0.002-0.553c0.002-1.089,0.871-1.976,1.938-1.976c0.001,0,0.002,0,0.005,0l0.578,0.001 c0.522,0.001,1.015,0.206,1.385,0.578C214.859,182.215,215.062,182.707,215.062,183.23z M222.25,187.36l-0.005,2.016l0,0 l-0.01,4.344l-0.003,1.376c-0.002,0.521-0.207,1.014-0.577,1.383s-0.86,0.571-1.382,0.571c-0.002,0-0.004,0-0.005,0l-0.579-0.001 c-0.524-0.001-1.016-0.207-1.385-0.578c-0.368-0.369-0.571-0.863-0.57-1.385l0.014-5.719c0-0.002,0-0.002,0-0.002l0.005-2.015 c0.001-0.522,0.206-1.015,0.577-1.384c0.369-0.367,0.859-0.57,1.381-0.57c0.001,0,0.004,0,0.005,0l0.579,0.001 C221.375,185.4,222.252,186.281,222.25,187.36z M188.57,201.687l0.022-9.623c0.01-0.427,0.272-4.269,6.25-4.269 c0.01,0,0.019,0,0.026,0l8.362-0.032c1.416,0,1.922,0.11,1.922,1.848c0,1.559,0.081,4.383-2.047,4.53 c-2.08,0.145-3.062,0.128-5.599,0.128c-0.006,0-0.012,0-0.018,0l-2.491-0.005c-0.001,0-0.002,0-0.004,0 c-0.738,0-1.338,0.598-1.34,1.338c0,0.001,0,0.002,0,0.005c0,0.001,0,0.003,0,0.005c-0.002,0.739,0.597,1.341,1.338,1.343 c7.166,0.017,11.441,5.859,11.425,13.025c-0.001,0.74,0.598,1.342,1.338,1.344c0.001,0,0.001,0,0.003,0 c0.738,0,1.338-0.598,1.341-1.337c0.014-6.155-2.768-11.088-7.936-13.663c1.582-0.053,1.488-0.085,3.026-0.246 c2.053,0,3.177-3.327,3.177-6.194c0-3.248-0.666-4.603-2.723-4.603c-0.716,0-1.235-0.029-1.235-0.029l0.025-22.15l0.011-4.141 c0-0.531,0.205-1.029,0.574-1.403c0.366-0.37,0.85-0.573,1.363-0.573c0.004,0,0.005,0,0.006,0l0.579,0.001 c1.08,0.002,1.957,0.884,1.954,1.963l-0.021,24.837l-0.026,10.047c0,0.027,0.002,0.054,0.004,0.08l-0.003,1.15 c-0.005,2.559,2.071,4.645,4.629,4.65l0.58,0.001c0.004,0,0.007,0,0.01,0c1.235,0,2.398-0.48,3.274-1.352 c0.007-0.006,0.012-0.012,0.019-0.019c0.007,0.006,0.012,0.012,0.018,0.019c0.876,0.878,2.04,1.363,3.278,1.366l0.579,0.001 c0.003,0,0.008,0,0.012,0c0.685,0,1.347-0.146,1.949-0.427l-0.005,2.457c-0.021,9.263-7.564,16.783-16.821,16.783 c-0.014,0-0.025,0-0.039,0C196.08,218.521,188.553,210.958,188.57,201.687z"/>
	</g>
</g>
</svg>
