<?xml version="1.0" encoding="utf-8"?>
<!-- Generator: Adobe Illustrator 17.1.0, SVG Export Plug-In . SVG Version: 6.00 Build 0)  -->
<!DOCTYPE svg PUBLIC "-//W3C//DTD SVG 1.1//EN" "http://www.w3.org/Graphics/SVG/1.1/DTD/svg11.dtd">
<svg version="1.1" xmlns="http://www.w3.org/2000/svg" xmlns:xlink="http://www.w3.org/1999/xlink" x="0px" y="0px"
	 viewBox="0 0 320 372" enable-background="new 0 0 320 372" xml:space="preserve">
<g id="_x31_">
</g>
<g id="Capa_3">
	<g>
		<g id="MANO_114_">
			<path id="RELLENO_114_" fill="#FFCF48" d="M152.869,165.033v-20.909c0-2.374-1.924-4.298-4.299-4.298
				c-2.373,0-4.299,1.924-4.299,4.298v23.909h-3.197V119.62c0-2.376-1.924-4.3-4.299-4.3c-2.373,0-4.299,1.925-4.299,4.3v36.609
				h-3.198v-44.546c0-2.375-1.923-4.299-4.298-4.299s-4.301,1.924-4.301,4.299v44.546h-3.195v-39.915
				c0-2.375-1.926-4.299-4.299-4.299c-2.376,0-4.302,1.924-4.302,4.299v41.222h-3.195v-26.285c0-2.374-1.925-4.3-4.299-4.3
				c-2.376,0-4.302,1.926-4.302,4.3v26.283h-0.002v7.499v14.296v1.436h0.002c0,18.752,12.301,24.215,12.301,24.215l1.09,2.699
				l-6.641,32.259h42.283l-6.141-31.259l1.031-3.091c6.601-4.646,11.094-14.087,11.766-22.605c0.061-0.289,0.092-0.588,0.092-0.896
				v-1.297c0-0.01,0.004-0.017,0.004-0.025v-15.731H152.869z"/>
			<path id="TRAZO_114_" d="M150.571,136.421c-1.502,0-2.904,0.432-4.09,1.18v-17.98c0-4.248-3.457-7.703-7.706-7.703
				c-1.502,0-2.902,0.433-4.092,1.179v-1.412c0.002-4.248-3.454-7.703-7.702-7.703c-3.644,0-6.704,2.539-7.501,5.941
				c-1.228-0.828-2.707-1.312-4.295-1.312c-4.249,0-7.705,3.456-7.705,7.704v8.41c-1.187-0.746-2.588-1.178-4.09-1.178
				c-4.25,0-7.705,3.455-7.705,7.704v26.285l-0.002,7.497v14.296v1.438c0.002,11.117,5.834,20.89,14.596,26.442l-7.793,36.229h0.066
				c-0.025,0.193-0.041,0.388-0.041,0.584c0,5.748,10.957,10.407,24.469,10.407c13.514,0,24.468-4.659,24.468-10.407
				c0-0.196-0.016-0.391-0.041-0.584h0.067l-7.711-36.318c7.966-5.104,13.545-13.711,14.393-23.675
				c0.078-0.449,0.121-0.906,0.121-1.357v-1.191v-0.01v-0.119v-15.733v-20.909C158.277,139.878,154.82,136.421,150.571,136.421z
				 M154.875,180.765c0,0.008-0.004,0.016-0.004,0.025v1.297c0,0.309-0.031,0.607-0.092,0.896
				c-0.674,8.518-5.166,15.957-11.768,20.604c-1.934,1.362-4.051,2.479-6.305,3.317l3.437,0.033l0.42,1.975l6.151,28.959
				c-4.454-2.581-11.632-4.257-19.735-4.257c-8.098,0-15.273,1.674-19.728,4.252l6.229-28.872l0.498-2.307l2.779,0.026
				c-2.033-0.801-3.948-1.832-5.715-3.064c-7.224-5.039-11.955-13.406-11.955-22.885h-0.004v-1.436v-14.296v-7.499h0.004v-26.283
				c0-2.374,1.926-4.3,4.301-4.3c2.374,0,4.299,1.926,4.299,4.3v26.285h3.195v-41.222c0-2.375,1.926-4.299,4.301-4.299
				s4.299,1.924,4.299,4.299v39.915h3.197v-44.546c0-2.375,1.925-4.299,4.3-4.299c2.375,0,4.298,1.924,4.298,4.299v44.546h3.197
				V119.62c0-2.375,1.926-4.3,4.299-4.3c2.375,0,4.3,1.924,4.3,4.3v48.413h3.197v-23.909c0-2.374,1.926-4.298,4.299-4.298
				c2.374,0,4.3,1.924,4.3,4.298v20.909h0.004V180.765z"/>
			<ellipse id="RELLENO_2_228_" fill="#FFCF48" cx="126.98" cy="244.062" rx="20.129" ry="7.498"/>
			<g>
				<ellipse id="RELLENO_2_227_" fill="#C83759" cx="126.98" cy="245.063" rx="9.593" ry="3.573"/>
				<path d="M126.98,249.637c-5.264,0-10.593-1.571-10.593-4.573c0-3.002,5.329-4.573,10.593-4.573
					c5.264,0,10.593,1.571,10.593,4.573C137.573,248.065,132.244,249.637,126.98,249.637z M126.98,242.49
					c-5.561,0-8.593,1.7-8.593,2.573c0,0.873,3.032,2.573,8.593,2.573c5.561,0,8.593-1.7,8.593-2.573
					C135.573,244.19,132.541,242.49,126.98,242.49z"/>
			</g>
		</g>
		<g id="MANO_113_">
			<path id="RELLENO_113_" fill="#FFCF48" d="M163.129,165.033v-20.909c0-2.374,1.926-4.298,4.301-4.298
				c2.373,0,4.299,1.924,4.299,4.298v23.909h3.197V119.62c0-2.376,1.924-4.3,4.299-4.3c2.373,0,4.299,1.925,4.299,4.3v36.609h3.197
				v-44.546c0-2.375,1.922-4.299,4.297-4.299s4.301,1.924,4.301,4.299v44.546h3.195v-39.915c0-2.375,1.926-4.299,4.299-4.299
				c2.375,0,4.301,1.924,4.301,4.299v41.222h3.195v-26.285c0-2.374,1.926-4.3,4.299-4.3c2.375,0,4.301,1.926,4.301,4.3v26.283h0.004
				v7.499v14.296v1.436h-0.004c0,18.752-12.299,24.215-12.299,24.215l-1.09,2.699l6.641,32.259h-42.281l6.141-31.259l-1.031-3.091
				c-6.602-4.646-11.094-14.087-11.768-22.605c-0.061-0.289-0.092-0.588-0.092-0.896v-1.297c0-0.01-0.004-0.017-0.004-0.025v-15.731
				H163.129z"/>
			<path id="TRAZO_113_" d="M161.725,144.124v20.909v15.733v0.119v0.01v1.191c0,0.451,0.043,0.908,0.121,1.357
				c0.848,9.964,6.428,18.571,14.393,23.675l-7.711,36.318h0.068c-0.025,0.193-0.041,0.388-0.041,0.584
				c0,5.748,10.953,10.407,24.467,10.407c13.512,0,24.467-4.659,24.467-10.407c0-0.196-0.016-0.391-0.041-0.584h0.066l-7.793-36.229
				c8.762-5.553,14.594-15.325,14.596-26.442v-1.438v-14.296l-0.002-7.497v-26.285c0-4.249-3.455-7.704-7.705-7.704
				c-1.502,0-2.902,0.432-4.09,1.178v-8.41c0-4.248-3.455-7.704-7.705-7.704c-1.586,0-3.064,0.483-4.293,1.312
				c-0.799-3.402-3.857-5.941-7.502-5.941c-4.248,0-7.703,3.455-7.701,7.703v1.412c-1.189-0.746-2.59-1.179-4.092-1.179
				c-4.248,0-7.705,3.455-7.705,7.703v17.98c-1.186-0.748-2.588-1.18-4.09-1.18C165.182,136.421,161.725,139.878,161.725,144.124z
				 M165.127,165.033h0.004v-20.909c0-2.374,1.926-4.298,4.301-4.298c2.373,0,4.299,1.924,4.299,4.298v23.909h3.197V119.62
				c0-2.376,1.924-4.3,4.299-4.3c2.373,0,4.299,1.925,4.299,4.3v36.609h3.197v-44.546c0-2.375,1.922-4.299,4.297-4.299
				s4.301,1.924,4.301,4.299v44.546h3.195v-39.915c0-2.375,1.926-4.299,4.299-4.299c2.375,0,4.301,1.924,4.301,4.299v41.222h3.195
				v-26.285c0-2.374,1.926-4.3,4.299-4.3c2.375,0,4.301,1.926,4.301,4.3v26.283h0.004v7.499v14.296v1.436h-0.004
				c0,9.479-4.73,17.846-11.955,22.885c-1.766,1.232-3.682,2.264-5.713,3.064l2.779-0.026l0.498,2.307l6.229,28.872
				c-4.455-2.578-11.631-4.252-19.727-4.252c-8.103,0-15.281,1.676-19.734,4.257l6.15-28.959l0.42-1.975l3.438-0.033
				c-2.254-0.839-4.371-1.955-6.305-3.317c-6.602-4.646-11.094-12.086-11.768-20.604c-0.061-0.289-0.092-0.588-0.092-0.896v-1.297
				c0-0.01-0.004-0.017-0.004-0.025V165.033z"/>
			<ellipse id="RELLENO_2_226_" fill="#FFCF48" cx="193.021" cy="244.062" rx="20.128" ry="7.498"/>
			<g>
				<ellipse id="RELLENO_2_225_" fill="#C83759" cx="193.021" cy="245.063" rx="9.593" ry="3.573"/>
				<path d="M182.428,245.064c0-3.002,5.33-4.573,10.594-4.573s10.592,1.571,10.592,4.573c0,3.002-5.328,4.573-10.592,4.573
					S182.428,248.065,182.428,245.064z M184.428,245.064c0,0.873,3.033,2.573,8.594,2.573c5.559,0,8.592-1.7,8.592-2.573
					c0-0.873-3.033-2.573-8.592-2.573C187.461,242.49,184.428,244.19,184.428,245.064z"/>
			</g>
		</g>
		<g id="OJO_111_" display="none">
			<g display="inline">
				<path id="OJO_112_" fill="#FFFFFF" d="M153.023,179.28c0,0-11.627,11.61-25.968,11.61c-14.342,0-25.968-11.61-25.968-11.61
					s11.626-11.607,25.968-11.607C141.396,167.673,153.023,179.28,153.023,179.28z"/>
				<path d="M127.056,192.391c-14.792,0-26.536-11.558-27.028-12.049l-1.062-1.061l1.062-1.062
					c0.492-0.491,12.236-12.046,27.028-12.046s26.536,11.555,27.028,12.046l1.062,1.062l-1.062,1.061
					C153.592,180.833,141.848,192.391,127.056,192.391z M103.314,179.278c3.223,2.79,12.732,10.111,23.741,10.111
					c11.033,0,20.524-7.317,23.741-10.107c-3.223-2.789-12.732-10.109-23.741-10.109
					C116.022,169.173,106.531,176.489,103.314,179.278z"/>
			</g>
			<g display="inline">
				<circle id="IRIS_56_" fill="#1CA9C9" cx="127.056" cy="179.28" r="9.805"/>
				<path d="M127.056,190.086c-5.958,0-10.805-4.848-10.805-10.806c0-5.957,4.847-10.805,10.805-10.805s10.806,4.848,10.806,10.805
					C137.861,185.238,133.014,190.086,127.056,190.086z M127.056,170.476c-4.854,0-8.805,3.949-8.805,8.805
					c0,4.855,3.95,8.805,8.805,8.805s8.806-3.949,8.806-8.805C135.861,174.425,131.91,170.476,127.056,170.476z"/>
			</g>
			<circle id="PUPILA_56_" display="inline" cx="127.056" cy="179.28" r="3.572"/>
			<circle id="BRILLO_OJO_56_" display="inline" fill="#FFFFFF" cx="130.333" cy="177.338" r="1.868"/>
			<g display="inline">
				<path d="M114.953,193.436c0,0,1.499,0.65,3.772,1.217c0.569,0.14,1.191,0.265,1.842,0.396c0.658,0.11,1.346,0.225,2.065,0.3
					c0.712,0.117,1.462,0.111,2.213,0.177c0.753,0.06,1.524,0.012,2.29,0.025c0.767-0.047,1.536-0.068,2.291-0.136
					c0.749-0.121,1.5-0.158,2.219-0.266c0.711-0.146,1.409-0.253,2.074-0.361c0.657-0.132,1.274-0.296,1.856-0.412
					c0.577-0.131,1.118-0.227,1.579-0.373c0.465-0.135,0.88-0.233,1.222-0.319c0.686-0.167,1.091-0.247,1.091-0.247
					s-0.33,0.232-0.932,0.611c-0.302,0.188-0.667,0.421-1.099,0.667c-0.423,0.269-0.929,0.507-1.49,0.747
					c-0.561,0.244-1.162,0.541-1.829,0.766c-0.67,0.214-1.38,0.445-2.125,0.648c-0.753,0.166-1.539,0.329-2.342,0.457
					c-0.809,0.097-1.637,0.149-2.463,0.216c-0.831-0.035-1.662-0.013-2.476-0.099c-0.814-0.078-1.611-0.191-2.369-0.369
					c-0.767-0.132-1.481-0.379-2.158-0.595c-0.673-0.226-1.293-0.491-1.85-0.759c-0.559-0.265-1.054-0.539-1.476-0.811
					c-0.434-0.247-0.776-0.528-1.065-0.734C115.229,193.736,114.953,193.436,114.953,193.436z"/>
			</g>
			<path display="inline" d="M133.869,164.296c0,0-2.982-2.276-6.659-2.276c-3.677,0-6.658,2.276-6.658,2.276
				s2.981-1.139,6.659-1.139C130.888,163.157,133.869,164.296,133.869,164.296z"/>
		</g>
		<g id="OJO_109_" display="none">
			<g display="inline">
				<path id="OJO_110_" fill="#FFFFFF" d="M166.978,179.28c0,0,11.627,11.61,25.967,11.61c14.342,0,25.967-11.61,25.967-11.61
					s-11.625-11.607-25.967-11.607C178.605,167.673,166.978,179.28,166.978,179.28z"/>
				<path d="M165.918,180.342l-1.063-1.061l1.063-1.062c0.494-0.491,12.236-12.046,27.027-12.046
					c14.793,0,26.535,11.555,27.027,12.046l1.062,1.062l-1.062,1.061c-0.492,0.491-12.234,12.049-27.027,12.049
					C178.154,192.391,166.412,180.833,165.918,180.342z M192.945,169.173c-11.008,0-20.518,7.32-23.74,10.109
					c3.217,2.79,12.707,10.107,23.74,10.107c11.01,0,20.518-7.321,23.74-10.111C213.469,176.489,203.978,169.173,192.945,169.173z"
					/>
			</g>
			<g display="inline">
				<circle id="IRIS_55_" fill="#1CA9C9" cx="192.945" cy="179.28" r="9.805"/>
				<path d="M182.141,179.28c0-5.957,4.848-10.805,10.805-10.805s10.805,4.848,10.805,10.805c0,5.958-4.848,10.806-10.805,10.806
					S182.141,185.238,182.141,179.28z M184.141,179.28c0,4.855,3.949,8.805,8.805,8.805s8.805-3.949,8.805-8.805
					c0-4.855-3.949-8.805-8.805-8.805S184.141,174.425,184.141,179.28z"/>
			</g>
			<circle id="PUPILA_55_" display="inline" cx="192.945" cy="179.28" r="3.572"/>
			<circle id="BRILLO_OJO_55_" display="inline" fill="#FFFFFF" cx="196.671" cy="177.338" r="1.868"/>
			<g display="inline">
				<path d="M181.115,193.436c0,0,1.499,0.65,3.772,1.217c0.569,0.14,1.191,0.265,1.842,0.396c0.658,0.11,1.346,0.225,2.065,0.3
					c0.712,0.117,1.462,0.111,2.213,0.177c0.753,0.06,1.524,0.012,2.29,0.025c0.767-0.047,1.536-0.068,2.291-0.136
					c0.749-0.121,1.5-0.158,2.219-0.266c0.711-0.146,1.409-0.253,2.074-0.361c0.657-0.132,1.273-0.296,1.855-0.412
					c0.577-0.131,1.118-0.227,1.579-0.373c0.465-0.135,0.88-0.233,1.222-0.319c0.687-0.167,1.091-0.247,1.091-0.247
					s-0.33,0.232-0.932,0.611c-0.302,0.188-0.667,0.421-1.099,0.667c-0.423,0.269-0.929,0.507-1.49,0.747
					c-0.561,0.244-1.162,0.541-1.829,0.766c-0.67,0.214-1.38,0.445-2.125,0.648c-0.753,0.166-1.539,0.329-2.342,0.457
					c-0.809,0.097-1.637,0.149-2.463,0.216c-0.831-0.035-1.662-0.013-2.476-0.099c-0.814-0.078-1.61-0.191-2.369-0.369
					c-0.767-0.132-1.481-0.379-2.158-0.595c-0.673-0.226-1.293-0.491-1.85-0.759c-0.559-0.265-1.054-0.539-1.476-0.811
					c-0.434-0.247-0.776-0.528-1.065-0.734C181.392,193.736,181.115,193.436,181.115,193.436z"/>
			</g>
			<path display="inline" d="M199.605,164.296c0,0-2.982-2.276-6.658-2.276c-3.678,0-6.658,2.276-6.658,2.276
				s2.98-1.139,6.658-1.139C196.625,163.157,199.605,164.296,199.605,164.296z"/>
		</g>
		<g id="SANGRE_34_" display="none">
			<path display="inline" fill="#C83759" d="M126.631,255.894c0,2.637-1.377,4.109-3.074,4.109c-1.697,0-3.074-1.473-3.074-4.109
				c0-2.638,3.074-6.771,3.074-6.771S126.631,253.256,126.631,255.894z"/>
			<path display="inline" fill="#C83759" d="M133.539,264.637c0,2.637-1.376,4.109-3.074,4.109c-1.697,0-3.074-1.473-3.074-4.109
				c0-2.638,3.074-6.77,3.074-6.77S133.539,261.999,133.539,264.637z"/>
			<path display="inline" fill="#C83759" d="M127.559,273.515c0,2.637-1.377,4.109-3.074,4.109c-1.697,0-3.074-1.473-3.074-4.109
				c0-2.638,3.074-6.77,3.074-6.77S127.559,270.877,127.559,273.515z"/>
			<path display="inline" fill="#C83759" d="M134.613,281.006c0,2.637-1.377,4.109-3.074,4.109c-1.698,0-3.074-1.473-3.074-4.109
				c0-2.638,3.074-6.77,3.074-6.77S134.613,278.368,134.613,281.006z"/>
		</g>
		<g id="SANGRE_33_" display="none">
			<path display="inline" fill="#C83759" d="M193.371,253.888c0,2.637,1.377,4.109,3.074,4.109c1.699,0,3.074-1.473,3.074-4.109
				c0-2.638-3.074-6.77-3.074-6.77S193.371,251.25,193.371,253.888z"/>
			<path display="inline" fill="#C83759" d="M186.463,259.632c0,2.637,1.375,4.109,3.072,4.109c1.699,0,3.074-1.473,3.074-4.109
				c0-2.638-3.074-6.771-3.074-6.771S186.463,256.994,186.463,259.632z"/>
			<path display="inline" fill="#C83759" d="M192.443,269.511c0,2.637,1.375,4.109,3.074,4.109c1.697,0,3.072-1.473,3.072-4.109
				c0-2.638-3.072-6.771-3.072-6.771S192.443,266.873,192.443,269.511z"/>
			<path display="inline" fill="#C83759" d="M186.598,281.007c0,2.637,1.375,4.109,3.072,4.109c1.699,0,3.074-1.473,3.074-4.109
				c0-2.638-3.074-6.771-3.074-6.771S186.598,278.369,186.598,281.007z"/>
		</g>
	</g>
	<g id="PARPADOS_18_">
		<g id="OJOS_10_">
			<g id="OJO_107_">
				<g>
					<path id="OJO_108_" fill="#FFFFFF" d="M153.145,179.196c0,0-11.627,11.608-25.968,11.608
						c-14.342,0-25.968-11.608-25.968-11.608s11.626-11.608,25.968-11.608C141.519,167.588,153.145,179.196,153.145,179.196z"/>
					<path d="M127.178,192.305c-14.792,0-26.536-11.556-27.028-12.047l-1.062-1.061l1.062-1.062
						c0.492-0.491,12.236-12.047,27.028-12.047s26.536,11.556,27.028,12.047l1.062,1.062l-1.062,1.061
						C153.714,180.749,141.97,192.305,127.178,192.305z M103.436,179.194c3.223,2.79,12.732,10.11,23.741,10.11
						c11.033,0,20.524-7.316,23.741-10.107c-3.223-2.789-12.732-10.109-23.741-10.109
						C116.144,169.089,106.653,176.405,103.436,179.194z"/>
				</g>
				<g>
					<circle id="IRIS_54_" fill="#1CA9C9" cx="127.178" cy="179.196" r="9.805"/>
					<path d="M127.178,190.001c-5.958,0-10.805-4.847-10.805-10.805c0-5.957,4.847-10.805,10.805-10.805
						c5.958,0,10.806,4.848,10.806,10.805C137.983,185.154,133.136,190.001,127.178,190.001z M127.178,170.392
						c-4.854,0-8.805,3.949-8.805,8.805s3.95,8.805,8.805,8.805c4.855,0,8.806-3.949,8.806-8.805S132.032,170.392,127.178,170.392z"
						/>
				</g>
				<circle id="PUPILA_54_" cx="127.178" cy="179.196" r="3.572"/>
				<circle id="BRILLO_OJO_54_" fill="#FFFFFF" cx="130.455" cy="177.254" r="1.868"/>
				<g>
					<path d="M115.075,193.35c0,0,1.499,0.65,3.772,1.217c0.569,0.14,1.191,0.265,1.842,0.395c0.658,0.11,1.346,0.225,2.065,0.3
						c0.712,0.117,1.462,0.111,2.213,0.177c0.753,0.059,1.524,0.012,2.29,0.025c0.767-0.047,1.536-0.068,2.291-0.136
						c0.749-0.121,1.5-0.158,2.219-0.266c0.711-0.146,1.409-0.253,2.074-0.361c0.657-0.132,1.273-0.296,1.855-0.412
						c0.577-0.131,1.118-0.228,1.579-0.373c0.465-0.135,0.88-0.233,1.222-0.319c0.687-0.167,1.091-0.247,1.091-0.247
						s-0.331,0.232-0.932,0.611c-0.302,0.188-0.667,0.421-1.099,0.667c-0.423,0.269-0.929,0.507-1.49,0.747
						c-0.561,0.244-1.162,0.541-1.829,0.766c-0.67,0.214-1.38,0.445-2.125,0.648c-0.753,0.166-1.539,0.329-2.342,0.457
						c-0.809,0.097-1.637,0.149-2.463,0.216c-0.831-0.035-1.662-0.013-2.476-0.099c-0.815-0.078-1.611-0.191-2.369-0.369
						c-0.767-0.132-1.481-0.379-2.158-0.595c-0.673-0.226-1.293-0.491-1.85-0.759c-0.559-0.265-1.054-0.539-1.476-0.811
						c-0.434-0.247-0.776-0.528-1.065-0.734C115.352,193.65,115.075,193.35,115.075,193.35z"/>
				</g>
				<path d="M133.991,164.212c0,0-2.982-2.276-6.659-2.276c-3.677,0-6.658,2.276-6.658,2.276s2.981-1.138,6.659-1.138
					C131.01,163.074,133.991,164.212,133.991,164.212z"/>
			</g>
			<g id="OJO_105_">
				<g>
					<path id="OJO_106_" fill="#FFFFFF" d="M167.101,179.196c0,0,11.627,11.608,25.967,11.608c14.342,0,25.967-11.608,25.967-11.608
						s-11.625-11.608-25.967-11.608C178.727,167.588,167.101,179.196,167.101,179.196z"/>
					<path d="M166.04,180.258l-1.062-1.061l1.062-1.062c0.494-0.491,12.236-12.047,27.027-12.047
						c14.793,0,26.535,11.556,27.027,12.047l1.062,1.062l-1.062,1.061c-0.492,0.491-12.234,12.047-27.027,12.047
						C178.276,192.305,166.534,180.749,166.04,180.258z M193.067,169.089c-11.008,0-20.518,7.32-23.74,10.109
						c3.217,2.79,12.707,10.107,23.74,10.107c11.01,0,20.518-7.32,23.74-10.11C213.591,176.405,204.101,169.089,193.067,169.089z"/>
				</g>
				<g>
					<circle id="IRIS_53_" fill="#1CA9C9" cx="193.067" cy="179.196" r="9.805"/>
					<path d="M182.263,179.196c0-5.957,4.848-10.805,10.805-10.805s10.805,4.848,10.805,10.805c0,5.958-4.848,10.805-10.805,10.805
						S182.263,185.154,182.263,179.196z M184.263,179.196c0,4.855,3.949,8.805,8.805,8.805s8.805-3.949,8.805-8.805
						s-3.949-8.805-8.805-8.805S184.263,174.341,184.263,179.196z"/>
				</g>
				<circle id="PUPILA_53_" cx="193.067" cy="179.196" r="3.572"/>
				<circle id="BRILLO_OJO_53_" fill="#FFFFFF" cx="196.793" cy="177.254" r="1.868"/>
				<g>
					<path d="M181.237,193.35c0,0,1.499,0.65,3.772,1.217c0.569,0.14,1.191,0.265,1.842,0.395c0.658,0.11,1.346,0.225,2.065,0.3
						c0.712,0.117,1.462,0.111,2.213,0.177c0.753,0.059,1.524,0.012,2.29,0.025c0.767-0.047,1.536-0.068,2.291-0.136
						c0.749-0.121,1.5-0.158,2.219-0.266c0.711-0.146,1.409-0.253,2.074-0.361c0.657-0.132,1.273-0.296,1.855-0.412
						c0.577-0.131,1.118-0.228,1.579-0.373c0.465-0.135,0.88-0.233,1.222-0.319c0.686-0.167,1.091-0.247,1.091-0.247
						s-0.331,0.232-0.932,0.611c-0.302,0.188-0.667,0.421-1.099,0.667c-0.423,0.269-0.929,0.507-1.49,0.747
						c-0.561,0.244-1.162,0.541-1.829,0.766c-0.67,0.214-1.38,0.445-2.125,0.648c-0.753,0.166-1.539,0.329-2.343,0.457
						c-0.808,0.097-1.636,0.149-2.462,0.216c-0.831-0.035-1.662-0.013-2.476-0.099c-0.815-0.078-1.611-0.191-2.369-0.369
						c-0.767-0.132-1.482-0.379-2.158-0.595c-0.673-0.226-1.293-0.491-1.85-0.759c-0.559-0.265-1.054-0.539-1.475-0.811
						c-0.434-0.247-0.776-0.528-1.065-0.734C181.514,193.65,181.237,193.35,181.237,193.35z"/>
				</g>
				<path d="M199.727,164.212c0,0-2.982-2.276-6.658-2.276c-3.678,0-6.658,2.276-6.658,2.276s2.98-1.138,6.658-1.138
					C196.747,163.074,199.727,164.212,199.727,164.212z"/>
			</g>
		</g>
		<g id="PARPADOS_19_">
			<g>
				<polygon fill="#FFCF48" points="99.307,179.474 118.133,175.075 131.361,175.075 153.493,179.474 150.44,172.986 
					126.654,160.127 114.825,165.863 				"/>
				<polygon fill="#FFCF48" points="153.493,179.474 134.447,184.338 121.219,184.338 99.937,179.474 102.14,185.422 
					117.373,200.832 142.227,198.453 				"/>
				<path fill="none" stroke="#000000" stroke-miterlimit="10" d="M150.44,179.474c0,0-10.649,5.403-23.786,5.403
					s-23.785-5.403-23.785-5.403s10.648-4.402,23.785-4.402S150.44,179.474,150.44,179.474z"/>
			</g>
			<g>
				<polygon fill="#FFCF48" points="165.348,179.474 184.174,174.07 197.402,174.07 219.534,179.474 216.481,172.986 
					192.695,160.127 180.866,165.863 				"/>
				<polygon fill="#FFCF48" points="219.534,179.474 200.488,184.338 187.26,184.338 165.978,179.474 168.181,185.422 
					183.414,200.832 208.269,198.453 				"/>
				<path fill="none" stroke="#000000" stroke-miterlimit="10" d="M216.481,179.474c0,0-10.649,5.403-23.786,5.403
					c-13.137,0-23.785-5.403-23.785-5.403s10.648-5.403,23.785-5.403C205.832,174.07,216.481,179.474,216.481,179.474z"/>
			</g>
		</g>
	</g>
</g>
<g id="MANOS_EJEMPLO">
</g>
</svg>
