<?xml version="1.0" encoding="utf-8"?>
<!-- Generator: Adobe Illustrator 17.1.0, SVG Export Plug-In . SVG Version: 6.00 Build 0)  -->
<!DOCTYPE svg PUBLIC "-//W3C//DTD SVG 1.1//EN" "http://www.w3.org/Graphics/SVG/1.1/DTD/svg11.dtd">
<svg version="1.1" id="Capa_1" xmlns="http://www.w3.org/2000/svg" xmlns:xlink="http://www.w3.org/1999/xlink" x="0px" y="0px"
	 viewBox="0 0 100 100" style="enable-background:new 0 0 100 100;" xml:space="preserve">
<path id="LOGOTIPO" style="fill:#FFFFFF;" d="M5.852,4.155v11.209h3.841v1.853H3.881V4.155H5.852z M41.795,5.907
	c-1.331-1.331-2.927-1.997-4.789-1.997c-1.883,0-3.497,0.66-4.839,1.98c-1.348,1.32-2.022,2.899-2.022,4.737
	c0,2.092,0.739,3.784,2.216,5.076c1.343,1.167,2.857,1.752,4.543,1.752c1.906,0,3.533-0.658,4.881-1.971
	c1.342-1.309,2.014-2.902,2.014-4.78C43.8,8.836,43.132,7.237,41.795,5.907z M40.399,14.18c-0.942,0.947-2.098,1.421-3.469,1.421
	c-1.263,0-2.377-0.465-3.341-1.396c-0.97-0.929-1.455-2.115-1.455-3.559c0-1.373,0.468-2.529,1.404-3.465
	c0.936-0.946,2.084-1.419,3.443-1.419c1.365,0,2.51,0.472,3.435,1.419c0.93,0.942,1.396,2.109,1.396,3.499
	C41.812,12.056,41.341,13.223,40.399,14.18z M58.725,17.217V3.267l9.525,9.965V4.155h1.971v13.857l-9.525-9.94v9.145H58.725z
	 M92.961,24.789v11.209h-1.971V24.789h-3.004v-1.853h7.969v1.853H92.961z M12.047,34.307c-0.665-0.608-1.407-1.04-2.225-1.293
	c-0.761-0.26-1.799-0.39-3.113-0.39H3.968v13.062h2.707c1.325,0,2.349-0.121,3.071-0.364c0.773-0.242,1.512-0.674,2.216-1.294
	c1.404-1.241,2.107-2.865,2.107-4.873C14.069,37.152,13.395,35.536,12.047,34.307z M10.626,42.615
	c-0.473,0.429-1.004,0.742-1.59,0.939c-0.587,0.186-1.323,0.279-2.208,0.279H5.939v-9.357h0.889c1.681,0,2.952,0.398,3.815,1.194
	c0.959,0.891,1.438,2.052,1.438,3.485C12.081,40.576,11.596,41.729,10.626,42.615z M41.795,34.375
	c-1.331-1.331-2.927-1.997-4.789-1.997c-1.883,0-3.497,0.66-4.839,1.98c-1.348,1.32-2.022,2.899-2.022,4.738
	c0,2.092,0.739,3.785,2.216,5.076c1.343,1.168,2.857,1.751,4.543,1.751c1.906,0,3.533-0.657,4.881-1.971
	c1.342-1.308,2.014-2.902,2.014-4.78C43.8,37.305,43.132,35.706,41.795,34.375z M40.399,42.65c-0.942,0.947-2.098,1.419-3.469,1.419
	c-1.263,0-2.377-0.464-3.341-1.394c-0.97-0.931-1.455-2.116-1.455-3.56c0-1.374,0.468-2.529,1.404-3.465
	c0.936-0.948,2.084-1.42,3.443-1.42c1.365,0,2.51,0.472,3.435,1.42c0.93,0.942,1.396,2.108,1.396,3.499
	C41.812,40.525,41.341,41.691,40.399,42.65z M65.616,60.605l-4.264-7.419h2.267l2.986,5.219l2.995-5.219h2.267l-4.28,7.419v5.642
	h-1.972V60.605z M95.06,54.277c-0.429-0.423-0.925-0.71-1.489-0.863c-0.558-0.152-1.385-0.228-2.479-0.228h-2.234v13.061h1.972
	v-5.304h0.913c1.36,0,2.44-0.35,3.241-1.049c0.801-0.7,1.202-1.647,1.202-2.843C96.185,55.935,95.81,55.01,95.06,54.277z
	 M91.566,59.116H90.83v-4.112h0.651c1.866,0,2.8,0.675,2.8,2.022C94.281,58.42,93.376,59.116,91.566,59.116z M3.726,75.933v-13.95
	l9.526,9.966v-9.077h1.971v13.857l-9.526-9.94v9.144H3.726z M41.559,85.286h-5.237v3.139h5.085v1.852h-5.085v4.366h5.237v1.853
	h-7.208V83.434h7.208V85.286z M70.508,85.372l-1.599,0.947c-0.299-0.519-0.584-0.857-0.854-1.015c-0.283-0.18-0.646-0.27-1.091-0.27
	c-0.548,0-1.001,0.155-1.362,0.466c-0.361,0.305-0.542,0.688-0.542,1.15c0,0.637,0.474,1.151,1.421,1.54l1.303,0.535
	c1.061,0.429,1.836,0.952,2.326,1.569c0.491,0.62,0.737,1.377,0.737,2.275c0,1.202-0.401,2.195-1.202,2.979
	c-0.807,0.791-1.808,1.186-3.003,1.186c-1.135,0-2.07-0.337-2.809-1.011c-0.727-0.674-1.182-1.62-1.362-2.838l1.997-0.44
	c0.09,0.767,0.248,1.297,0.474,1.591c0.406,0.564,0.998,0.846,1.777,0.846c0.614,0,1.125-0.205,1.531-0.616
	c0.406-0.412,0.61-0.934,0.61-1.565c0-0.254-0.034-0.485-0.104-0.697c-0.071-0.212-0.181-0.406-0.33-0.584
	c-0.15-0.177-0.344-0.344-0.581-0.499c-0.237-0.155-0.519-0.303-0.847-0.444l-1.26-0.523c-1.788-0.755-2.682-1.862-2.682-3.315
	c0-0.98,0.375-1.8,1.125-2.46c0.75-0.664,1.684-0.997,2.801-0.997C68.487,83.18,69.662,83.91,70.508,85.372z M86.408,94.583h9.797
	v1.776h-9.797V94.583z M96.63,3.92l-0.51-0.51L3.37,96.158l0.511,0.51L96.63,3.92z"/>
</svg>
