<?xml version="1.0" encoding="utf-8"?>
<!-- Generator: Adobe Illustrator 17.1.0, SVG Export Plug-In . SVG Version: 6.00 Build 0)  -->
<!DOCTYPE svg PUBLIC "-//W3C//DTD SVG 1.1//EN" "http://www.w3.org/Graphics/SVG/1.1/DTD/svg11.dtd">
<svg version="1.1" id="Capa_1" xmlns="http://www.w3.org/2000/svg" xmlns:xlink="http://www.w3.org/1999/xlink" x="0px" y="0px"
	 viewBox="0 0 1280 768" style="enable-background:new 0 0 1280 768;" xml:space="preserve">
<g id="PANTALLA_2" style="display:none;">
	<rect y="768" style="display:inline;fill:#FFCF48;" width="1280" height="768"/>
	<linearGradient id="DEGRADADO_1_" gradientUnits="userSpaceOnUse" x1="-1" y1="1152" x2="1279" y2="1152">
		<stop  offset="0.2159" style="stop-color:#1CA9C9"/>
		<stop  offset="0.3002" style="stop-color:#21AAC6"/>
		<stop  offset="0.4042" style="stop-color:#30ACBD"/>
		<stop  offset="0.5184" style="stop-color:#49B1AF"/>
		<stop  offset="0.6401" style="stop-color:#6CB69B"/>
		<stop  offset="0.7677" style="stop-color:#99BE82"/>
		<stop  offset="0.8981" style="stop-color:#CFC763"/>
		<stop  offset="1" style="stop-color:#FFCF48"/>
	</linearGradient>
	<polygon id="DEGRADADO" style="display:inline;fill:url(#DEGRADADO_1_);" points="1279,1536 -1,1536 -1,1022.148 260.108,768 
		1279,768 	"/>
	<polygon id="ESQUINA" style="display:inline;fill:#C83759;" points="260.107,768 -1,1022.148 -1,768 	"/>
</g>
<g id="PANTALLA_1">
	<linearGradient id="DEGRADADO_2_1_" gradientUnits="userSpaceOnUse" x1="260.1074" y1="384" x2="1280" y2="384">
		<stop  offset="0.2814" style="stop-color:#1CA9C9"/>
		<stop  offset="1" style="stop-color:#FFCF48"/>
	</linearGradient>
	<polygon id="DEGRADADO_2" style="fill:url(#DEGRADADO_2_1_);" points="1280,768 260.107,768 1024.198,0 1280,0 	"/>
	<linearGradient id="DEGRADADO_1_1_" gradientUnits="userSpaceOnUse" x1="0" y1="384" x2="1024.1981" y2="384">
		<stop  offset="0" style="stop-color:#C83759"/>
		<stop  offset="0.1627" style="stop-color:#C73959"/>
		<stop  offset="0.5253" style="stop-color:#AE7E4C"/>
		<stop  offset="0.8453" style="stop-color:#9BB441"/>
		<stop  offset="1" style="stop-color:#93C93D"/>
	</linearGradient>
	<polygon id="DEGRADADO_1" style="fill:url(#DEGRADADO_1_1_);" points="0,768 0,0 1024.198,0 260.107,768 	"/>
	<path id="FLECHA" style="display:none;fill:#FFFFFF;" d="M640.556,728.877l15.196-15.195c0.414-0.412,0.414-1.081,0-1.493
		c-0.411-0.413-1.08-0.413-1.492,0l-14.45,14.449l-14.068-14.069c-0.412-0.412-1.081-0.412-1.493,0
		c-0.207,0.207-0.31,0.477-0.31,0.746c0,0.271,0.104,0.541,0.31,0.747l14.815,14.815C639.476,729.29,640.145,729.29,640.556,728.877
		z"/>
	<path id="LOGOTIPO" style="display:none;fill:#FFFFFF;" d="M553.661,293.774v22.392h7.673v3.701h-11.61v-26.093H553.661z
		 M625.464,297.272c-2.658-2.66-5.847-3.989-9.566-3.989c-3.762,0-6.985,1.319-9.666,3.955c-2.693,2.636-4.04,5.791-4.04,9.464
		c0,4.18,1.477,7.559,4.428,10.139c2.683,2.332,5.708,3.499,9.076,3.499c3.808,0,7.058-1.313,9.751-3.938
		c2.682-2.614,4.023-5.797,4.023-9.548C629.469,303.125,628.134,299.931,625.464,297.272z M622.675,313.801
		c-1.881,1.892-4.191,2.839-6.93,2.839c-2.523,0-4.749-0.929-6.675-2.788c-1.938-1.857-2.907-4.226-2.907-7.11
		c0-2.743,0.935-5.053,2.806-6.922c1.871-1.89,4.163-2.834,6.879-2.834c2.726,0,5.014,0.944,6.861,2.834
		c1.858,1.881,2.789,4.214,2.789,6.99C625.498,309.558,624.557,311.888,622.675,313.801z M659.284,319.867V292l19.028,19.907
		v-18.133h3.938v27.682l-19.028-19.857v18.268H659.284z M727.677,334.993v22.392h-3.937v-22.392h-6v-3.701h15.92v3.701H727.677z
		 M566.038,354.007c-1.329-1.215-2.812-2.078-4.445-2.584c-1.521-0.519-3.593-0.778-6.219-0.778h-5.475v26.094h5.408
		c2.647,0,4.692-0.242,6.134-0.727c1.544-0.484,3.02-1.347,4.428-2.586c2.806-2.479,4.208-5.723,4.208-9.734
		C570.077,359.691,568.73,356.463,566.038,354.007z M563.198,370.603c-0.946,0.857-2.005,1.482-3.177,1.876
		c-1.172,0.372-2.642,0.558-4.411,0.558h-1.775v-18.692h1.775c3.357,0,5.898,0.795,7.622,2.384c1.916,1.779,2.873,4.1,2.873,6.962
		C566.105,366.53,565.136,368.835,563.198,370.603z M625.464,354.143c-2.658-2.658-5.847-3.989-9.566-3.989
		c-3.762,0-6.985,1.319-9.666,3.955c-2.693,2.636-4.04,5.791-4.04,9.464c0,4.18,1.477,7.561,4.428,10.14
		c2.683,2.332,5.708,3.497,9.076,3.497c3.808,0,7.058-1.313,9.751-3.938c2.682-2.614,4.023-5.796,4.023-9.548
		C629.469,359.996,628.134,356.801,625.464,354.143z M622.675,370.674c-1.881,1.892-4.191,2.836-6.93,2.836
		c-2.523,0-4.749-0.926-6.675-2.785c-1.938-1.86-2.907-4.228-2.907-7.111c0-2.746,0.935-5.052,2.806-6.922
		c1.871-1.894,4.163-2.837,6.879-2.837c2.726,0,5.014,0.944,6.861,2.837c1.858,1.882,2.789,4.211,2.789,6.99
		C625.498,366.429,624.557,368.759,622.675,370.674z M673.049,406.542l-8.517-14.821h4.529l5.966,10.427l5.983-10.427h4.529
		l-8.551,14.821v11.271h-3.94V406.542z M731.869,393.9c-0.856-0.845-1.848-1.419-2.975-1.724c-1.115-0.304-2.767-0.456-4.952-0.456
		h-4.462v26.092h3.939v-10.595h1.823c2.717,0,4.874-0.698,6.474-2.096c1.6-1.397,2.4-3.291,2.4-5.679
		C734.117,397.213,733.368,395.365,731.869,393.9z M724.889,403.567h-1.469v-8.214h1.301c3.728,0,5.593,1.348,5.593,4.04
		C730.313,402.176,728.506,403.567,724.889,403.567z M549.414,437.162v-27.868l19.029,19.909v-18.134h3.938v27.682l-19.03-19.857
		v18.268H549.414z M624.992,455.847h-10.461v6.27h10.157v3.7h-10.157v8.722h10.461v3.701h-14.398v-26.094h14.398V455.847z
		 M682.823,456.018l-3.194,1.892c-0.598-1.037-1.166-1.712-1.706-2.028c-0.565-0.36-1.291-0.54-2.18-0.54
		c-1.094,0-2,0.31-2.722,0.932c-0.722,0.608-1.082,1.375-1.082,2.298c0,1.273,0.947,2.3,2.839,3.076l2.603,1.068
		c2.119,0.856,3.668,1.901,4.647,3.134c0.981,1.238,1.472,2.75,1.472,4.545c0,2.401-0.801,4.385-2.4,5.95
		c-1.611,1.58-3.611,2.369-5.999,2.369c-2.267,0-4.136-0.674-5.611-2.02c-1.453-1.346-2.36-3.236-2.722-5.669l3.989-0.88
		c0.18,1.532,0.496,2.591,0.946,3.178c0.812,1.127,1.994,1.689,3.549,1.689c1.227,0,2.248-0.41,3.058-1.23
		c0.812-0.823,1.218-1.865,1.218-3.126c0-0.507-0.068-0.97-0.208-1.392c-0.143-0.423-0.362-0.812-0.66-1.167
		c-0.299-0.355-0.688-0.687-1.16-0.997c-0.474-0.311-1.037-0.605-1.691-0.888l-2.518-1.044c-3.571-1.509-5.357-3.719-5.357-6.623
		c0-1.957,0.749-3.596,2.248-4.914c1.499-1.326,3.363-1.991,5.596-1.991C678.784,451.64,681.133,453.098,682.823,456.018z
		 M714.586,474.418h19.57v3.549h-19.57V474.418z M735.006,293.304l-1.019-1.019l-185.285,185.28l1.021,1.018L735.006,293.304z"/>
</g>
</svg>
