<?xml version="1.0" encoding="utf-8"?>
<!-- Generator: Adobe Illustrator 17.1.0, SVG Export Plug-In . SVG Version: 6.00 Build 0)  -->
<!DOCTYPE svg PUBLIC "-//W3C//DTD SVG 1.1//EN" "http://www.w3.org/Graphics/SVG/1.1/DTD/svg11.dtd">
<svg version="1.1" id="Capa_1" xmlns="http://www.w3.org/2000/svg" xmlns:xlink="http://www.w3.org/1999/xlink" x="0px" y="0px"
	 viewBox="0 0 1280 768" style="enable-background:new 0 0 1280 768;" xml:space="preserve">
<g id="PANTALLA_2" style="display:none;">
	<linearGradient id="DEGRADADO_2_3_" gradientUnits="userSpaceOnUse" x1="639" y1="1152" x2="1280" y2="1152">
		<stop  offset="0.2814" style="stop-color:#1CA9C9"/>
		<stop  offset="1" style="stop-color:#FFCF48"/>
	</linearGradient>
	<rect id="DEGRADADO_2" x="639" y="768" style="display:inline;fill:url(#DEGRADADO_2_3_);" width="641" height="768"/>
	<linearGradient id="DEGRADADO_2_4_" gradientUnits="userSpaceOnUse" x1="0" y1="1152" x2="1280" y2="1152">
		<stop  offset="0" style="stop-color:#C83759"/>
		<stop  offset="0.0158" style="stop-color:#C03C5E"/>
		<stop  offset="0.198" style="stop-color:#687697"/>
		<stop  offset="0.3261" style="stop-color:#319BBB"/>
		<stop  offset="0.3879" style="stop-color:#1CA9C9"/>
		<stop  offset="0.7272" style="stop-color:#93C93D"/>
		<stop  offset="1" style="stop-color:#FFCF48"/>
	</linearGradient>
	<rect id="DEGRADADO_2_2_" y="768" style="display:inline;fill:url(#DEGRADADO_2_4_);" width="1280" height="768"/>
</g>
<g id="PANTALLA_1">
	<linearGradient id="DEGRADADO_2_5_" gradientUnits="userSpaceOnUse" x1="0" y1="384" x2="1280" y2="384">
		<stop  offset="0" style="stop-color:#C83759"/>
		<stop  offset="0.0158" style="stop-color:#C03C5E"/>
		<stop  offset="0.198" style="stop-color:#687697"/>
		<stop  offset="0.3261" style="stop-color:#319BBB"/>
		<stop  offset="0.3879" style="stop-color:#1CA9C9"/>
		<stop  offset="0.7272" style="stop-color:#93C93D"/>
		<stop  offset="1" style="stop-color:#FFCF48"/>
	</linearGradient>
	<rect id="DEGRADADO_2_1_" style="fill:url(#DEGRADADO_2_5_);" width="1280" height="768"/>
	<path id="FLECHA" style="display:none;fill:#FFFFFF;" d="M640.556,728.877l15.196-15.195c0.414-0.412,0.414-1.081,0-1.493
		c-0.411-0.413-1.08-0.413-1.492,0l-14.45,14.449l-14.068-14.069c-0.412-0.412-1.081-0.412-1.493,0
		c-0.207,0.207-0.31,0.477-0.31,0.746c0,0.271,0.104,0.541,0.31,0.747l14.815,14.815C639.476,729.29,640.145,729.29,640.556,728.877
		z"/>
	<path id="LOGOTIPO" style="display:none;fill:#FFFFFF;" d="M551.804,292.418v22.392h7.673v3.701h-11.61v-26.093H551.804z
		 M623.607,295.916c-2.658-2.66-5.847-3.989-9.566-3.989c-3.762,0-6.985,1.319-9.666,3.955c-2.693,2.636-4.04,5.791-4.04,9.464
		c0,4.18,1.476,7.559,4.428,10.139c2.683,2.332,5.708,3.499,9.076,3.499c3.808,0,7.058-1.314,9.751-3.938
		c2.682-2.614,4.023-5.797,4.023-9.548C627.613,301.769,626.278,298.575,623.607,295.916z M620.819,312.444
		c-1.881,1.892-4.191,2.839-6.93,2.839c-2.523,0-4.749-0.929-6.675-2.789c-1.938-1.856-2.907-4.226-2.907-7.11
		c0-2.743,0.936-5.053,2.806-6.922c1.871-1.89,4.163-2.834,6.878-2.834c2.727,0,5.014,0.944,6.861,2.834
		c1.858,1.881,2.789,4.214,2.789,6.99C623.641,308.201,622.701,310.532,620.819,312.444z M657.428,318.51v-27.867l19.029,19.907
		v-18.133h3.939V320.1l-19.029-19.857v18.268H657.428z M725.824,333.637v22.392h-3.936v-22.392h-6.001v-3.701h15.922v3.701H725.824z
		 M564.181,352.65c-1.329-1.215-2.812-2.078-4.445-2.584c-1.521-0.518-3.593-0.778-6.219-0.778h-5.475v26.094h5.408
		c2.647,0,4.692-0.242,6.134-0.727c1.543-0.484,3.02-1.347,4.428-2.586c2.806-2.479,4.208-5.723,4.208-9.734
		C568.22,358.335,566.874,355.106,564.181,352.65z M561.342,369.247c-0.946,0.856-2.005,1.481-3.177,1.876
		c-1.172,0.372-2.642,0.558-4.411,0.558h-1.775v-18.692h1.775c3.357,0,5.898,0.795,7.622,2.384c1.916,1.779,2.873,4.1,2.873,6.962
		C564.249,365.174,563.28,367.478,561.342,369.247z M623.607,352.787c-2.658-2.658-5.847-3.989-9.566-3.989
		c-3.762,0-6.985,1.319-9.666,3.955c-2.693,2.636-4.04,5.791-4.04,9.464c0,4.18,1.476,7.561,4.428,10.14
		c2.683,2.333,5.708,3.498,9.076,3.498c3.808,0,7.058-1.313,9.751-3.938c2.682-2.614,4.023-5.796,4.023-9.548
		C627.613,358.639,626.278,355.445,623.607,352.787z M620.819,369.318c-1.881,1.892-4.191,2.835-6.93,2.835
		c-2.523,0-4.749-0.926-6.675-2.785c-1.938-1.86-2.907-4.228-2.907-7.111c0-2.746,0.936-5.052,2.806-6.922
		c1.871-1.893,4.163-2.837,6.878-2.837c2.727,0,5.014,0.944,6.861,2.837c1.858,1.882,2.789,4.211,2.789,6.99
		C623.641,365.073,622.701,367.402,620.819,369.318z M671.193,405.185l-8.518-14.821h4.529l5.967,10.427l5.982-10.427h4.53
		l-8.552,14.821v11.271h-3.939V405.185z M730.018,392.544c-0.857-0.845-1.849-1.419-2.976-1.724
		c-1.115-0.304-2.767-0.456-4.952-0.456h-4.463v26.092h3.94v-10.595h1.823c2.717,0,4.874-0.698,6.475-2.096
		c1.6-1.397,2.4-3.291,2.4-5.679C732.266,395.856,731.516,394.009,730.018,392.544z M723.036,402.211h-1.469v-8.214h1.301
		c3.729,0,5.593,1.348,5.593,4.04C728.461,400.819,726.653,402.211,723.036,402.211z M547.558,435.806v-27.868l19.029,19.909
		v-18.134h3.938v27.682l-19.03-19.856v18.268H547.558z M623.136,454.49h-10.461v6.271h10.157v3.7h-10.157v8.722h10.461v3.701
		h-14.398V450.79h14.398V454.49z M680.969,454.661l-3.195,1.892c-0.598-1.037-1.166-1.712-1.705-2.028
		c-0.564-0.36-1.291-0.54-2.18-0.54c-1.094,0-2,0.31-2.723,0.932c-0.721,0.608-1.082,1.375-1.082,2.298
		c0,1.273,0.947,2.3,2.84,3.076l2.602,1.068c2.119,0.856,3.669,1.901,4.648,3.134c0.981,1.238,1.472,2.75,1.472,4.545
		c0,2.401-0.801,4.385-2.4,5.95c-1.612,1.58-3.612,2.369-5.999,2.369c-2.268,0-4.137-0.674-5.612-2.02
		c-1.453-1.346-2.36-3.236-2.722-5.669l3.989-0.88c0.18,1.532,0.497,2.591,0.946,3.178c0.812,1.127,1.994,1.69,3.549,1.69
		c1.229,0,2.248-0.41,3.059-1.23c0.812-0.823,1.219-1.865,1.219-3.126c0-0.507-0.068-0.97-0.209-1.392
		c-0.143-0.423-0.361-0.811-0.66-1.167c-0.299-0.354-0.688-0.686-1.16-0.997c-0.473-0.311-1.037-0.605-1.691-0.888l-2.518-1.044
		c-3.571-1.509-5.357-3.719-5.357-6.623c0-1.957,0.749-3.596,2.248-4.914c1.5-1.326,3.363-1.991,5.596-1.991
		C676.93,450.283,679.278,451.741,680.969,454.661z M712.732,473.061h19.572v3.549h-19.572V473.061z M733.154,291.947l-1.02-1.019
		l-185.289,185.28l1.021,1.019L733.154,291.947z"/>
</g>
</svg>
