<?xml version="1.0" encoding="utf-8"?>
<!-- Generator: Adobe Illustrator 17.1.0, SVG Export Plug-In . SVG Version: 6.00 Build 0)  -->
<!DOCTYPE svg PUBLIC "-//W3C//DTD SVG 1.1//EN" "http://www.w3.org/Graphics/SVG/1.1/DTD/svg11.dtd">
<svg version="1.1" id="Capa_1" xmlns="http://www.w3.org/2000/svg" xmlns:xlink="http://www.w3.org/1999/xlink" x="0px" y="0px"
	 viewBox="0 0 2560 1440" style="enable-background:new 0 0 2560 1440;" xml:space="preserve">
<style type="text/css">
	.st0{fill:#FFCF48;}
	.st1{fill:url(#DEGRADADO_1_);}
	.st2{fill:#FFFFFF;}
	.st3{fill:none;stroke:#FFFFFF;stroke-width:2;stroke-miterlimit:10;}
	.st4{fill:#C83759;}
	.st5{fill:url(#DEGRADADO_2_1_);}
	.st6{fill:url(#DEGRADADO_1_1_);}
</style>
<g id="PANTALLA_1">
	<linearGradient id="DEGRADADO_2_1_" gradientUnits="userSpaceOnUse" x1="400.4498" y1="720" x2="2749" y2="720">
		<stop  offset="0.2814" style="stop-color:#1CA9C9"/>
		<stop  offset="1" style="stop-color:#FFCF48"/>
	</linearGradient>
	<polygon id="DEGRADADO_2" class="st5" points="2749,1604 400.45,1604 2159.39,-164 2749,-164 	"/>
	<linearGradient id="DEGRADADO_1_1_" gradientUnits="userSpaceOnUse" x1="-199" y1="720" x2="2159.3904" y2="720">
		<stop  offset="0" style="stop-color:#C83759"/>
		<stop  offset="0.1627" style="stop-color:#C73959"/>
		<stop  offset="0.5253" style="stop-color:#AE7E4C"/>
		<stop  offset="0.8453" style="stop-color:#9BB441"/>
		<stop  offset="1" style="stop-color:#93C93D"/>
	</linearGradient>
	<polygon id="DEGRADADO_1" class="st6" points="-199,1604 -199,-164 2159.39,-164 400.45,1604 	"/>
	<path id="FLECHA" class="st2" d="M1280.245,1297.878l34.981-34.98c0.953-0.949,0.953-2.489,0-3.437
		c-0.947-0.951-2.486-0.951-3.435,0l-33.263,33.262l-32.385-32.388c-0.949-0.949-2.489-0.949-3.437,0
		c-0.476,0.477-0.715,1.097-0.715,1.718c0,0.625,0.238,1.245,0.715,1.72l34.103,34.105
		C1277.758,1298.829,1279.298,1298.829,1280.245,1297.878z"/>
	<path id="LOGOTIPO" class="st2" d="M1076.211,512.269v51.546h17.663v8.52h-26.726v-60.066H1076.211z M1241.502,520.323
		c-6.119-6.123-13.46-9.182-22.022-9.182c-8.661,0-16.08,3.036-22.251,9.105c-6.199,6.069-9.3,13.331-9.3,21.786
		c0,9.622,3.399,17.401,10.193,23.341c6.176,5.368,13.139,8.055,20.893,8.055c8.765,0,16.248-3.024,22.447-9.064
		c6.173-6.018,9.261-13.344,9.261-21.98C1250.722,533.796,1247.649,526.443,1241.502,520.323z M1235.083,558.371
		c-4.331,4.356-9.649,6.535-15.952,6.535c-5.809,0-10.931-2.139-15.365-6.419c-4.461-4.274-6.692-9.727-6.692-16.367
		c0-6.314,2.154-11.631,6.458-15.935c4.306-4.351,9.582-6.524,15.834-6.524c6.276,0,11.542,2.173,15.795,6.524
		c4.277,4.331,6.419,9.7,6.419,16.092C1241.58,548.603,1239.415,553.968,1235.083,558.371z M1319.357,572.335v-64.149l43.803,45.826
		v-41.743h9.064v63.725l-43.803-45.712v42.053H1319.357z M1476.797,607.156v51.546h-9.062v-51.546h-13.812v-8.52h36.648v8.52
		H1476.797z M1104.703,650.925c-3.06-2.798-6.472-4.783-10.233-5.948c-3.501-1.194-8.272-1.792-14.316-1.792h-12.604v60.068h12.449
		c6.094,0,10.802-0.558,14.121-1.673c3.553-1.115,6.951-3.101,10.193-5.953c6.459-5.707,9.688-13.175,9.688-22.409
		C1114,664.011,1110.902,656.579,1104.703,650.925z M1098.166,689.131c-2.177,1.972-4.616,3.41-7.313,4.319
		c-2.699,0.857-6.082,1.284-10.154,1.284h-4.086v-43.029h4.086c7.729,0,13.577,1.83,17.546,5.489
		c4.41,4.096,6.614,9.437,6.614,16.026C1104.859,679.754,1102.627,685.059,1098.166,689.131z M1241.502,651.239
		c-6.119-6.119-13.46-9.183-22.022-9.183c-8.661,0-16.08,3.036-22.251,9.105c-6.199,6.069-9.3,13.331-9.3,21.787
		c0,9.622,3.399,17.405,10.193,23.343c6.176,5.369,13.139,8.051,20.893,8.051c8.765,0,16.248-3.023,22.447-9.064
		c6.173-6.017,9.261-13.343,9.261-21.98C1250.722,664.711,1247.649,657.358,1241.502,651.239z M1235.083,689.294
		c-4.331,4.354-9.649,6.527-15.952,6.527c-5.809,0-10.931-2.132-15.365-6.41c-4.461-4.281-6.692-9.733-6.692-16.369
		c0-6.32,2.154-11.63,6.458-15.934c4.306-4.359,9.582-6.532,15.834-6.532c6.276,0,11.542,2.173,15.795,6.532
		c4.277,4.332,6.419,9.693,6.419,16.09C1241.58,679.522,1239.415,684.884,1235.083,689.294z M1351.043,771.862l-19.607-34.119
		h10.426l13.734,24.003l13.774-24.003h10.427l-19.684,34.119v25.945h-9.069V771.862z M1486.447,742.76
		c-1.971-1.945-4.253-3.267-6.848-3.968c-2.567-0.699-6.369-1.05-11.4-1.05h-10.271v60.063h9.069v-24.389h4.197
		c6.254,0,11.22-1.607,14.902-4.824c3.682-3.217,5.526-7.576,5.526-13.072C1491.623,750.386,1489.898,746.133,1486.447,742.76z
		 M1470.378,765.014h-3.381v-18.908h2.994c8.583,0,12.875,3.102,12.875,9.3C1482.866,761.811,1478.705,765.014,1470.378,765.014z
		 M1066.435,842.349v-64.153l43.804,45.831v-41.744h9.065v63.723l-43.807-45.71v42.052H1066.435z M1240.416,885.361h-24.081v14.435
		h23.382v8.518h-23.382v20.077h24.081v8.52h-33.145v-60.068h33.145V885.361z M1373.543,885.755l-7.353,4.354
		c-1.376-2.387-2.684-3.941-3.927-4.669c-1.299-0.83-2.972-1.243-5.018-1.243c-2.518,0-4.604,0.713-6.265,2.145
		c-1.661,1.401-2.491,3.165-2.491,5.29c0,2.932,2.181,5.294,6.535,7.081l5.991,2.459c4.878,1.972,8.444,4.377,10.698,7.214
		c2.257,2.851,3.388,6.331,3.388,10.463c0,5.528-1.844,10.094-5.526,13.697c-3.709,3.637-8.313,5.454-13.81,5.454
		c-5.218,0-9.521-1.551-12.917-4.649c-3.345-3.098-5.434-7.45-6.265-13.05l9.183-2.026c0.414,3.527,1.142,5.964,2.178,7.315
		c1.868,2.594,4.591,3.889,8.17,3.889c2.826,0,5.175-0.944,7.041-2.832c1.868-1.895,2.803-4.294,2.803-7.196
		c0-1.167-0.157-2.232-0.479-3.203c-0.328-0.974-0.834-1.868-1.52-2.686c-0.688-0.816-1.583-1.58-2.671-2.295
		c-1.09-0.715-2.387-1.394-3.894-2.043l-5.796-2.403c-8.221-3.473-12.333-8.561-12.333-15.246c0-4.505,1.724-8.277,5.175-11.312
		c3.451-3.053,7.742-4.584,12.881-4.584C1364.246,875.676,1369.652,879.033,1373.543,885.755z M1446.661,928.112h45.051v8.169
		h-45.051V928.112z M1493.668,511.186l-2.345-2.346l-426.526,426.515l2.349,2.345L1493.668,511.186z"/>
</g>
</svg>
