<?xml version="1.0" encoding="utf-8"?>
<!-- Generator: Adobe Illustrator 17.1.0, SVG Export Plug-In . SVG Version: 6.00 Build 0)  -->
<!DOCTYPE svg PUBLIC "-//W3C//DTD SVG 1.1//EN" "http://www.w3.org/Graphics/SVG/1.1/DTD/svg11.dtd">
<svg version="1.1" id="Layer_1" xmlns="http://www.w3.org/2000/svg" xmlns:xlink="http://www.w3.org/1999/xlink" x="0px" y="0px"
	 viewBox="0 0 320 440" style="enable-background:new 0 0 320 440;" xml:space="preserve">
<g id="PANTALLA_2">
	<linearGradient id="BG_1_" gradientUnits="userSpaceOnUse" x1="0" y1="219.5" x2="320" y2="219.5">
		<stop  offset="0.2814" style="stop-color:#1CA9C9"/>
		<stop  offset="1" style="stop-color:#FFCF48"/>
	</linearGradient>
	<rect id="BG" y="-1" style="fill:url(#BG_1_);" width="320" height="441"/>
	<path id="FLECHA_1_" style="display:none;fill:#FFFFFF;" d="M166.196,13.938l-12.012,12.012c-0.327,0.326-0.327,0.854,0,1.18
		c0.325,0.326,0.854,0.326,1.18,0l11.422-11.422l11.121,11.121c0.326,0.326,0.855,0.326,1.181,0
		c0.164-0.162,0.245-0.375,0.245-0.588c0-0.215-0.081-0.428-0.245-0.592l-11.711-11.711
		C167.051,13.611,166.521,13.611,166.196,13.938z"/>
	<rect x="14.047" y="42.387" style="fill:none;" width="275.621" height="216.627"/>
	<text id="DESCRIPCION" transform="matrix(1 0 0 1 14.0474 51.6168)" style="display:none;"><tspan x="0" y="0" style="display:inline;fill:#FFFFFF; font-family:'Lato-Black'; font-size:13;">London Type</tspan><tspan x="0" y="15.6" style="display:inline;fill:#FFFFFF; font-family:'Lato-Regular'; font-size:13;">Es un proyecto colaborativo que </tspan><tspan x="0" y="31.2" style="display:inline;fill:#FFFFFF; font-family:'Lato-Regular'; font-size:13;">busca explorar los limites de la </tspan><tspan x="0" y="46.8" style="display:inline;fill:#FFFFFF; font-family:'Lato-Regular'; font-size:13;">tecnología aplicada al área visual y movil.</tspan><tspan x="0" y="78" style="display:inline;fill:#FFFFFF; font-family:'Lato-Regular'; font-size:13;">Gracias a la intervención de diferentes </tspan><tspan x="0" y="93.6" style="display:inline;fill:#FFFFFF; font-family:'Lato-Regular'; font-size:13;">artistas visuales y desarrolladores, </tspan><tspan x="0" y="109.2" style="display:inline;fill:#FFFFFF; font-family:'Lato-Regular'; font-size:13;">hemos utilizado HTML y librerias de </tspan><tspan x="0" y="124.8" style="display:inline;fill:#FFFFFF; font-family:'Lato-Regular'; font-size:13;">Paper.js para crear un experiencia de </tspan><tspan x="0" y="140.4" style="display:inline;fill:#FFFFFF; font-family:'Lato-Regular'; font-size:13;">usuario interactiva e innovadora.</tspan><tspan x="0" y="171.6" style="display:inline;fill:#FFFFFF; font-family:'Lato-Black'; font-size:13;">Contacto</tspan><tspan x="0" y="187.2" style="display:inline;fill:#FFFFFF; font-family:'Lato-Regular'; font-size:13;">hi@londontypes.com</tspan></text>
	<g id="CREDITOS" style="display:none;">
		<g style="display:inline;">
			<rect x="12.689" y="327" style="fill:none;" width="141.307" height="81.654"/>
			<text transform="matrix(1 0 0 1 12.6895 336.2295)"><tspan x="0" y="0" style="fill:#FFFFFF; font-family:'Lato-Black'; font-size:13;">Designers</tspan><tspan x="107.339" y="19" style="fill:#FFFFFF; font-family:'Lato-Regular'; font-size:11;">Velckro</tspan><tspan x="82.567" y="32.2" style="fill:#FFFFFF; font-family:'Lato-Regular'; font-size:11;">MAST Studio</tspan><tspan x="87.056" y="45.4" style="fill:#FFFFFF; font-family:'Lato-Regular'; font-size:11;">Pedro Cobo</tspan><tspan x="88.431" y="58.601" style="fill:#FFFFFF; font-family:'Lato-Regular'; font-size:11;">Pablo Abad</tspan><tspan x="25.368" y="71.801" style="fill:#FFFFFF; font-family:'Lato-Regular'; font-size:11;">Attitude Visual Art Studio</tspan></text>
			<line style="fill:#333333;stroke:#FFFFFF;stroke-miterlimit:10;" x1="14" y1="340.5" x2="154" y2="340.5"/>
		</g>
		<g style="display:inline;">
			<rect x="166.689" y="326.158" style="fill:none;" width="140.311" height="95.398"/>
			<text transform="matrix(1.0625 0 0 1 166.6895 335.3877)"><tspan x="0" y="0" style="fill:#FFFFFF; font-family:'Lato-Black'; font-size:13;">Developers</tspan><tspan x="78.199" y="19" style="fill:#FFFFFF; font-family:'Lato-Regular'; font-size:11;">Javier Pérez</tspan><tspan x="62.008" y="32.2" style="fill:#FFFFFF; font-family:'Lato-Regular'; font-size:11;">Monica Lirugyli</tspan><tspan x="19.779" y="45.4" style="fill:#FFFFFF; font-family:'Lato-Regular'; font-size:11;">David Gonzalez Vaquero</tspan><tspan x="13.829" y="58.601" style="fill:#FFFFFF; font-family:'Lato-Regular'; font-size:11;">Manuel J. Dávila González</tspan><tspan x="74.328" y="71.801" style="fill:#FFFFFF; font-family:'Lato-Regular'; font-size:11;">Rennie Scott</tspan></text>
			<line style="fill:#333333;stroke:#FFFFFF;stroke-miterlimit:10;" x1="168" y1="340.5" x2="308" y2="340.5"/>
		</g>
	</g>
	<g id="SPECIAL_THANKS" style="display:none;">
		<rect x="164.689" y="254.158" style="display:inline;fill:none;" width="141.291" height="63.392"/>
		<text transform="matrix(1.0625 0 0 1 164.6895 263.3877)" style="display:inline;"><tspan x="0" y="0" style="fill:#FFFFFF; font-family:'Lato-Black'; font-size:13;">Special thanks</tspan><tspan x="62.248" y="18" style="fill:#FFFFFF; font-family:'Lato-Regular'; font-size:11;">Luis Hernandez</tspan><tspan x="81.058" y="31.2" style="fill:#FFFFFF; font-family:'Lato-Regular'; font-size:11;">The Feelms</tspan><tspan x="56" y="44.4" style="fill:#FFFFFF; font-family:'Lato-Regular'; font-size:11;">Alvaro Cuadrado</tspan></text>
		<line style="display:inline;fill:#333333;stroke:#FFFFFF;stroke-miterlimit:10;" x1="166" y1="268.5" x2="306" y2="268.5"/>
	</g>
</g>
<g id="PANTALLA_1">
	<linearGradient id="DEGRADADO_2_1_" gradientUnits="userSpaceOnUse" x1="0" y1="-194.4026" x2="320" y2="-194.4026">
		<stop  offset="0.2814" style="stop-color:#1CA9C9"/>
		<stop  offset="1" style="stop-color:#FFCF48"/>
	</linearGradient>
	<polygon id="DEGRADADO_2" style="fill:url(#DEGRADADO_2_1_);" points="320,0 0,0 0,-66.729 320,-388.805 	"/>
</g>
</svg>
