<?xml version="1.0" encoding="utf-8"?>
<!-- Generator: Adobe Illustrator 17.1.0, SVG Export Plug-In . SVG Version: 6.00 Build 0)  -->
<!DOCTYPE svg PUBLIC "-//W3C//DTD SVG 1.1//EN" "http://www.w3.org/Graphics/SVG/1.1/DTD/svg11.dtd">
<svg version="1.1" id="Capa_1" xmlns="http://www.w3.org/2000/svg" xmlns:xlink="http://www.w3.org/1999/xlink" x="0px" y="0px"
	 viewBox="0 0 100 100" enable-background="new 0 0 100 100" xml:space="preserve">
<g id="PANTALLA_4" opacity="0.6">
	<path fill="#010101" d="M49.822,0C22.306,0,0,22.41,0,50.049c0,27.647,22.306,50.06,49.822,50.06
		c27.519,0,49.821-22.416,49.821-50.06C99.643,22.41,77.339,0,49.822,0z M87.417,50.109c-1.048,1.563-16.426,24.032-37.892,24.032
		c-21.46,0-36.295-22.478-37.298-24.032l-0.06-0.013c0,0,0.019-0.022,0.028-0.036c-0.01-0.018-0.028-0.045-0.028-0.045l0.063-0.008
		c1.044-1.563,16.426-24.035,37.889-24.035c21.462,0,36.294,22.472,37.301,24.035l0.055,0.008c0,0-0.017,0.021-0.024,0.04
		c0.008,0.019,0.024,0.041,0.024,0.041L87.417,50.109z"/>
	<path fill="#010101" d="M49.822,33.03c-9.359,0-16.947,7.622-16.947,17.02c0,9.404,7.588,17.03,16.947,17.03
		c9.361,0,16.947-7.626,16.947-17.03C66.77,40.652,59.183,33.03,49.822,33.03z M49.822,56.621c-3.607,0-6.532-2.937-6.532-6.565
		c0-3.625,2.925-6.562,6.532-6.562c3.608,0,6.53,2.937,6.53,6.562C56.353,53.683,53.431,56.621,49.822,56.621z"/>
</g>
</svg>
